<svg xmlns="http://www.w3.org/2000/svg" viewBox="0 0 64 64">
  <rect x="18" y="28" width="24" height="30" rx="3" fill="#1D1D1B"/>
  <rect x="21" y="31" width="18" height="24" rx="1.5" fill="white" opacity="0.3"/>
  <path d="M42 34L48 34C50.2 34 52 35.8 52 38L52 46C52 48.2 50.2 50 48 50L42 50" fill="none" stroke="#1D1D1B" stroke-width="3.5" stroke-linecap="round" stroke-linejoin="round"/>
  <path d="M20 28C20 28 22 24 24 24L36 24C38 24 40 28 40 28" fill="none" stroke="#1D1D1B" stroke-width="2.5"/>
  <ellipse cx="30" cy="24" rx="7" ry="4" fill="#1D1D1B"/>
  <path d="M24 22C24 18 26 16 30 16C34 16 36 18 36 22" fill="none" stroke="#1D1D1B" stroke-width="2.5" stroke-linecap="round"/>
  <circle cx="27" cy="20" r="2.5" fill="#1D1D1B"/>
  <circle cx="33" cy="19" r="3" fill="#1D1D1B"/>
  <circle cx="30" cy="16" r="2" fill="#1D1D1B"/>
</svg>
