<svg xmlns="http://www.w3.org/2000/svg" viewBox="0 0 64 64"><path fill="#1D1D1B" d="M32,12c-11,0-20,6.7-20,15c0,4.5,2.5,8.5,6.5,11.3V46c0,1.1,0.9,2,2,2s2-0.9,2-2v-5.3c1.6,0.5,3.3,0.9,5,1.1V46c0,1.1,0.9,2,2,2s2-0.9,2-2v-4.1c0.7,0,1.3,0,2,0c0.7,0,1.3,0,2,0V46c0,1.1,0.9,2,2,2s2-0.9,2-2v-4.2c1.7-0.2,3.4-0.6,5-1.1V46c0,1.1,0.9,2,2,2s2-0.9,2-2v-7.7C48.5,35.5,52,31.5,52,27C52,18.7,43,12,32,12z M26,30c-1.7,0-3-1.3-3-3s1.3-3,3-3s3,1.3,3,3S27.7,30,26,30z M35,34h-6c-0.6,0-1-0.4-1-1s0.4-1,1-1h6c0.6,0,1,0.4,1,1S35.6,34,35,34z M38,30c-1.7,0-3-1.3-3-3s1.3-3,3-3s3,1.3,3,3S39.7,30,38,30z"/></svg>
